<svg viewBox="0 0 1200 220" xmlns="http://www.w3.org/2000/svg" role="img" aria-label="A chain of paper-doll children holding hands, each made of different stuff.">
  <defs>
    <clipPath id="doll">
      <circle cx="75" cy="42" r="23"/>
      <rect x="0" y="72" width="150" height="18" rx="9"/>
      <polygon points="52,62 98,62 107,144 43,144"/>
      <rect x="47" y="140" width="21" height="56" rx="9"/>
      <rect x="82" y="140" width="21" height="56" rx="9"/>
    </clipPath>
  </defs>
  <g transform="translate(0,0)" clip-path="url(#doll)">
    <rect width="150" height="220" fill="#26406B"/>
    <g fill="#D6A93E">
      <path d="M58 52 l2 5 5 2 -5 2 -2 5 -2 -5 -5 -2 5 -2z"/>
      <path d="M96 60 l2 5 5 2 -5 2 -2 5 -2 -5 -5 -2 5 -2z"/>
      <path d="M70 104 l2.4 6 6 2.4 -6 2.4 -2.4 6 -2.4 -6 -6 -2.4 6 -2.4z"/>
      <path d="M101 118 l1.6 4 4 1.6 -4 1.6 -1.6 4 -1.6 -4 -4 -1.6 4 -1.6z"/>
      <path d="M52 132 l1.6 4 4 1.6 -4 1.6 -1.6 4 -1.6 -4 -4 -1.6 4 -1.6z"/>
      <path d="M86 158 l2 5 5 2 -5 2 -2 5 -2 -5 -5 -2 5 -2z"/>
    </g>
    <path d="M104 40 a11 11 0 1 0 0 20 a8 8 0 1 1 0 -20z" fill="#D6A93E"/>
  </g>
  <g transform="translate(150,0)" clip-path="url(#doll)">
    <rect width="150" height="220" fill="#C56A4E"/>
    <g stroke="#F5EDDC" stroke-width="1.4" opacity="0.85">
      <line x1="38" y1="78" x2="112" y2="74"/><line x1="38" y1="90" x2="112" y2="86"/>
      <line x1="38" y1="102" x2="112" y2="98"/><line x1="40" y1="132" x2="108" y2="130"/><line x1="40" y1="146" x2="108" y2="144"/>
    </g>
    <g fill="#F5EDDC">
      <ellipse cx="60" cy="120" rx="7" ry="5" transform="rotate(-18 60 120)"/><rect x="65" y="96" width="2.4" height="26"/>
      <ellipse cx="92" cy="112" rx="7" ry="5" transform="rotate(-18 92 112)"/><rect x="97" y="88" width="2.4" height="26"/>
      <ellipse cx="76" cy="166" rx="6.5" ry="4.6" transform="rotate(-18 76 166)"/><rect x="80.5" y="144" width="2.2" height="24"/>
    </g>
  </g>
  <g transform="translate(300,0)" clip-path="url(#doll)">
    <rect width="150" height="220" fill="#A9C6D6"/>
    <g stroke="#26406B" stroke-width="2" fill="none">
      <line x1="60" y1="66" x2="90" y2="84"/><line x1="90" y1="84" x2="66" y2="112"/><line x1="66" y1="112" x2="98" y2="130"/><line x1="98" y1="130" x2="72" y2="160"/><line x1="66" y1="112" x2="52" y2="140"/>
    </g>
    <g fill="#26406B">
      <circle cx="60" cy="66" r="6"/><circle cx="90" cy="84" r="6.5"/><circle cx="66" cy="112" r="6.5"/><circle cx="98" cy="130" r="6"/><circle cx="52" cy="140" r="5.5"/><circle cx="72" cy="160" r="6"/>
    </g>
  </g>
  <g transform="translate(450,0)" clip-path="url(#doll)">
    <rect width="150" height="220" fill="#6E8B6A"/>
    <g stroke="#3C5A3A" stroke-width="1.8" fill="none" stroke-linecap="round">
      <line x1="75" y1="58" x2="75" y2="188"/>
      <path d="M75 78 L58 68"/><path d="M75 78 L92 68"/><path d="M75 100 L54 88"/><path d="M75 100 L96 88"/>
      <path d="M75 124 L52 112"/><path d="M75 124 L98 112"/><path d="M75 150 L56 140"/><path d="M75 150 L94 140"/><path d="M75 172 L60 164"/><path d="M75 172 L90 164"/>
    </g>
  </g>
  <g transform="translate(600,0)" clip-path="url(#doll)">
    <rect width="150" height="220" fill="#3E7C8C"/>
    <g stroke="#CDE6EC" stroke-width="2.4" fill="none" opacity="0.9" stroke-linecap="round">
      <path d="M34 84 q13 -8 26 0 t26 0 t26 0"/><path d="M34 108 q13 -8 26 0 t26 0 t26 0"/><path d="M40 134 q12 -7 24 0 t24 0 t24 0"/><path d="M42 160 q12 -7 22 0 t22 0 t22 0"/><path d="M48 182 q11 -6 20 0 t20 0"/>
    </g>
  </g>
  <g transform="translate(750,0)" clip-path="url(#doll)">
    <rect width="150" height="220" fill="#E7D3A6"/>
    <g stroke="#7A5A2E" stroke-width="2.2" opacity="0.75" stroke-linecap="round">
      <line x1="42" y1="76" x2="104" y2="76"/><line x1="42" y1="90" x2="96" y2="90"/><line x1="42" y1="104" x2="106" y2="104"/><line x1="46" y1="126" x2="102" y2="126"/><line x1="46" y1="140" x2="90" y2="140"/><line x1="46" y1="154" x2="104" y2="154"/><line x1="52" y1="172" x2="96" y2="172"/>
    </g>
  </g>
  <g transform="translate(900,0)" clip-path="url(#doll)">
    <rect width="150" height="220" fill="#C79A4E"/>
    <g stroke="#7A5216" stroke-width="1.8" fill="none" opacity="0.85">
      <path d="M46 96 q20 -22 44 -6 q18 12 6 30 q-14 20 -34 8 q-18 -12 -16 -32z"/><path d="M54 104 q14 -14 30 -4 q12 8 4 20 q-10 14 -24 6 q-12 -8 -10 -22z"/>
    </g>
    <g stroke="#F5EDDC" stroke-width="1.6" fill="none" stroke-dasharray="2 5" stroke-linecap="round"><path d="M52 150 q18 12 40 4 q18 -6 22 14"/></g>
    <circle cx="52" cy="150" r="3" fill="#F5EDDC"/><circle cx="112" cy="168" r="3" fill="#F5EDDC"/>
  </g>
  <g transform="translate(1050,0)" clip-path="url(#doll)">
    <rect width="150" height="220" fill="#8A5A78"/>
    <g fill="#E7D3A6">
      <g transform="translate(62,84)"><circle cx="0" cy="-7" r="4.2"/><circle cx="7" cy="-2" r="4.2"/><circle cx="4" cy="6" r="4.2"/><circle cx="-4" cy="6" r="4.2"/><circle cx="-7" cy="-2" r="4.2"/></g>
      <g transform="translate(96,120)"><circle cx="0" cy="-7" r="4.2"/><circle cx="7" cy="-2" r="4.2"/><circle cx="4" cy="6" r="4.2"/><circle cx="-4" cy="6" r="4.2"/><circle cx="-7" cy="-2" r="4.2"/></g>
      <g transform="translate(58,150)"><circle cx="0" cy="-6" r="3.6"/><circle cx="6" cy="-1.6" r="3.6"/><circle cx="3.5" cy="5" r="3.6"/><circle cx="-3.5" cy="5" r="3.6"/><circle cx="-6" cy="-1.6" r="3.6"/></g>
    </g>
    <g fill="#D6A93E"><circle cx="62" cy="84" r="3.4"/><circle cx="96" cy="120" r="3.4"/><circle cx="58" cy="150" r="3"/></g>
    <path d="M78 170 q-9 -10 -18 -2 q-6 6 0 13 q9 10 18 2 q9 8 18 -2 q6 -7 0 -13 q-9 -8 -18 2z" fill="#E7D3A6"/>
  </g>
</svg>
